P3
64 64
255
232 19 158 38 175 197 114 68 188 109 120 80 102 47 102 143 142 79 160 52 3 124 114 32 70 18 189 123 116 190 247 56 17 157 230 3 139 79 204 66 22 167 208 141 155 125 158 16 54 157 56 53 118 49 163 35 84 116 30 193 22 211 24 89 251 223 42 123 228 43 13 211 160 178 15 154 233 126 200 14 30 19 234 106 32 185 15 104 6 228 183 173 125 202 177 131 16 162 158 159 216 57 71 143 122 143 112 87 189 144 239 236 95 180 30 98 232 214 53 197 135 82 39 148 205 228 83 235 181 162 217 40 97 52 67 171 90 217 201 56 80 186 53 12 76 140 215 199 170 121 47 13 0 39 144 8 4 80 190 216 123 146 8 155 183 109 225 194 46 19 206 189 163 213 34 70 185 39 238 87 40 232 122 39 47 60 46 190 208 250 209 173 
145 180 180 44 67 206 69 192 219 115 68 101 87 180 76 218 74 187 198 37 140 95 122 36 213 172 196 195 10 203 125 126 72 4 64 186 51 121 202 80 29 79 245 189 142 75 238 239 230 205 0 231 63 217 101 208 204 96 39 128 123 227 126 39 63 206 216 199 29 190 44 165 79 13 19 85 222 165 237 0 185 41 44 87 3 84 65 15 241 167 79 177 239 251 223 225 83 209 249 214 228 253 167 162 188 197 165 141 248 19 25 206 75 24 140 90 226 173 195 138 227 71 248 126 77 196 38 144 219 12 68 56 220 157 193 212 66 158 114 63 132 139 48 90 169 245 250 162 65 70 120 156 112 38 180 241 190 117 158 74 158 125 174 208 177 30 159 130 128 72 127 148 214 177 72 74 75 93 108 33 138 250 173 49 96 170 14 237 228 28 102 130 
30 111 160 103 215 250 183 203 203 146 10 94 155 184 212 184 4 217 149 71 120 109 103 25 0 28 50 76 144 173 246 149 225 136 131 9 249 53 246 96 249 65 23 216 125 38 156 96 65 135 88 239 254 78 110 5 47 63 43 2 253 90 234 120 97 211 180 201 5 68 78 185 110 47 203 122 122 201 245 245 119 42 26 87 149 230 41 12 113 2 30 139 50 53 95 76 179 109 190 214 88 89 211 191 4 125 18 217 30 111 115 17 42 79 173 111 126 116 71 1 28 126 26 45 180 85 38 48 242 160 136 218 109 58 142 142 245 116 37 26 206 130 249 116 97 241 193 219 228 181 36 140 70 1 125 18 166 150 111 184 140 87 111 128 245 34 107 234 116 91 156 226 12 50 124 141 180 128 216 149 28 238 169 175 152 84 98 49 135 3 88 59 
84 152 0 49 175 251 195 108 233 60 1 162 144 166 127 165 145 15 240 17 245 87 2 64 12 105 228 124 24 94 34 141 140 29 208 203 120 249 170 157 206 8 113 173 221 241 119 106 17 58 79 177 135 240 182 59 219 239 189 252 34 245 125 126 6 85 104 11 183 193 118 179 59 108 104 175 86 152 29 130 116 34 171 20 238 17 177 211 124 17 202 100 224 250 22 222 199 147 141 203 142 119 99 23 248 17 246 242 91 246 52 26 250 205 159 85 166 177 118 92 182 154 151 23 2 241 70 128 74 59 184 226 170 196 93 207 136 204 65 55 18 254 70 93 191 151 82 131 184 211 239 95 121 101 77 168 118 207 15 83 126 14 126 194 176 109 126 151 240 187 184 35 124 153 171 187 249 29 47 115 131 226 170 227 172 222 134 169 12 117 77 215 
19 240 192 131 146 210 59 242 199 11 55 37 48 4 229 63 60 131 185 111 246 101 90 11 252 155 153 0 178 82 59 11 138 6 170 143 60 189 202 154 93 238 129 180 95 30 209 74 18 93 77 7 196 184 95 70 165 108 126 207 16 152 21 139 208 171 158 50 133 186 169 93 69 201 230 249 199 230 25 160 58 252 183 112 214 3 103 215 135 65 21 117 105 112 163 48 252 101 9 60 10 243 82 18 103 249 130 242 164 55 214 118 125 210 213 240 65 184 180 196 151 221 146 249 223 179 42 69 148 230 22 115 233 209 42 145 50 152 195 17 86 253 7 13 44 30 208 23 33 156 230 90 203 75 84 87 201 71 11 226 79 219 66 189 132 13 134 169 229 43 236 220 23 152 114 158 44 178 26 32 228 183 234 14 254 71 56 82 68 134 13 124 
75 141 58 49 11 169 117 79 254 244 231 14 121 197 115 149 37 43 221 35 136 64 90 196 122 163 223 35 117 207 49 201 110 76 157 173 142 166 171 235 81 183 168 0 35 144 249 232 159 130 207 119 102 179 17 117 193 151 168 17 241 176 48 191 115 216 80 199 134 114 109 65 115 166 24 10 173 123 172 138 80 77 95 159 90 193 145 34 123 209 221 192 93 219 105 66 85 253 81 84 209 170 234 145 117 143 190 54 135 21 38 56 49 250 214 180 212 224 39 156 229 150 242 221 245 24 9 165 67 135 128 148 57 186 216 218 13 107 29 202 213 199 38 141 21 211 145 1 209 143 210 22 112 231 37 51 51 252 101 98 111 95 142 173 241 18 107 180 220 213 27 138 75 39 1 43 49 150 18 134 175 53 202 173 127 161 101 121 183 224 194 142 
24 67 58 149 27 0 26 207 172 18 50 190 203 222 210 43 160 88 217 143 163 252 91 24 1 146 178 254 61 207 184 136 226 76 224 34 14 250 47 196 92 97 230 72 246 121 179 218 82 114 94 108 65 202 134 129 34 239 54 66 152 89 149 162 128 115 249 170 153 136 61 140 33 134 41 138 121 253 1 18 245 213 217 121 82 164 16 149 231 212 215 135 204 102 86 12 76 148 94 181 159 250 79 28 143 98 162 48 118 8 144 171 113 176 14 30 134 21 128 236 69 199 47 191 73 6 43 208 185 178 121 26 128 192 61 166 253 13 33 10 116 218 88 64 164 193 207 72 128 58 208 100 186 30 164 67 47 229 11 245 83 243 155 69 85 33 105 210 179 210 252 232 28 22 211 64 143 160 84 10 111 129 59 118 176 128 229 162 104 110 217 180 
145 52 15 159 227 121 100 111 206 55 175 87 158 250 5 95 250 217 199 68 165 196 10 45 134 37 48 73 102 246 112 24 113 85 134 17 235 120 109 166 81 14 214 202 171 88 116 169 211 140 159 190 178 2 6 11 20 178 59 142 253 216 182 160 29 16 19 30 118 162 104 119 81 221 106 230 97 143 248 40 233 181 58 236 26 58 90 17 162 193 20 188 158 135 11 31 187 149 167 214 48 238 159 241 64 237 212 248 171 67 129 179 56 169 88 155 88 131 221 120 54 107 183 166 117 236 142 125 121 69 113 190 181 140 55 219 67 66 82 84 145 4 146 200 58 14 209 57 219 81 139 120 40 107 92 82 20 81 175 230 110 241 224 205 37 3 120 56 134 87 86 186 13 205 182 80 86 76 247 54 30 205 117 108 152 43 201 191 9 8 170 149 
145 187 59 192 63 105 103 174 135 241 76 90 199 41 41 171 164 100 187 193 188 211 88 14 48 193 69 222 18 155 169 47 162 177 72 37 224 118 235 99 240 206 200 253 217 120 200 192 73 83 219 244 28 85 156 210 7 132 193 184 161 134 14 27 98 10 29 142 217 249 72 109 61 72 45 134 47 121 37 94 241 194 124 8 70 158 26 28 17 155 133 112 77 26 76 176 233 229 243 227 117 161 236 91 7 148 193 220 170 14 120 142 135 176 63 71 128 75 94 226 127 3 39 126 171 2 175 136 127 31 88 84 70 12 62 21 62 42 7 134 197 175 157 83 128 54 98 137 196 195 12 170 17 127 4 14 154 9 176 80 1 26 32 168 145 19 251 14 21 81 158 121 44 120 63 151 164 145 10 201 217 117 138 215 49 64 230 223 159 11 180 33 
152 62 86 183 199 252 181 160 101 120 13 122 148 224 192 234 220 88 198 66 130 223 29 252 44 200 119 102 135 212 94 75 223 122 9 25 89 111 166 188 15 152 103 208 219 253 223 53 74 156 69 49 210 82 106 24 140 55 43 60 187 178 188 11 177 143 161 218 86 77 14 25 245 178 157 51 89 131 193 87 3 44 91 138 37 38 125 29 164 128 253 27 174 47 114 77 146 108 83 199 115 74 227 114 156 253 40 48 163 31 167 197 178 40 86 50 114 103 65 163 4 4 70 221 61 80 182 55 89 215 36 89 92 34 100 36 227 101 155 234 166 0 205 25 45 34 39 188 174 239 69 179 23 220 12 7 12 242 14 187 44 99 53 212 170 50 211 201 172 220 23 116 216 54 92 248 15 162 147 225 216 231 189 135 185 63 234 17 158 82 206 68 
73 56 126 76 43 1 126 62 206 254 177 69 37 195 197 165 155 227 216 102 63 167 137 71 175 76 164 214 217 144 165 11 175 21 72 24 132 178 240 159 167 128 218 94 198 72 214 156 7 21 180 157 156 80 218 22 184 244 237 22 189 72 245 226 254 209 165 190 49 77 5 140 14 225 208 252 103 162 9 28 32 15 203 67 217 66 7 12 202 73 105 115 55 11 36 179 15 67 147 0 212 174 55 15 176 223 116 57 211 5 14 102 34 148 203 38 91 47 44 216 100 217 3 174 69 4 31 247 147 150 156 66 180 134 31 179 97 195 95 136 64 181 56 170 156 14 247 202 169 18 147 40 124 94 25 112 178 103 6 71 63 37 198 248 108 34 176 198 225 101 251 160 164 80 78 25 209 36 104 0 231 252 123 173 200 176 75 217 168 135 252 10 
166 120 98 2 99 5 66 19 132 184 251 29 166 216 75 36 135 197 76 45 25 179 162 103 70 168 46 151 43 63 151 60 2 236 164 120 77 136 137 21 12 214 158 207 81 137 253 248 53 139 119 116 243 12 173 121 209 215 169 17 86 72 161 214 9 47 156 101 61 2 68 29 47 200 72 75 216 13 188 140 85 2 201 71 18 117 63 157 71 230 164 141 118 63 246 7 176 231 154 234 89 60 129 48 179 25 177 88 197 80 96 101 60 77 249 235 88 215 233 164 198 179 226 100 140 253 130 238 79 97 242 213 235 217 145 184 90 161 103 125 185 115 7 202 245 33 92 145 30 247 134 207 124 110 175 246 231 106 228 217 85 118 5 220 120 141 142 190 117 50 3 100 56 13 7 122 201 204 110 141 67 231 195 205 191 216 131 15 206 29 95 189 
217 117 173 183 70 143 138 239 157 12 113 96 242 49 197 136 56 164 182 130 95 29 191 179 167 238 169 188 237 149 234 153 23 249 245 95 147 80 227 42 199 218 208 75 99 37 151 103 95 160 159 242 36 210 249 84 208 239 112 127 83 187 76 82 176 129 40 228 35 93 108 32 85 114 104 225 75 38 239 158 149 24 150 228 243 54 87 82 61 222 98 222 234 192 206 240 13 180 162 5 60 38 33 243 63 53 242 106 75 5 75 226 249 234 7 178 198 240 243 243 189 158 51 202 39 135 219 101 154 88 192 205 57 198 231 63 246 22 36 172 182 132 66 13 66 36 4 48 189 135 182 173 47 140 63 146 3 21 182 225 125 137 1 34 107 39 52 20 158 36 225 2 105 227 219 166 66 164 71 80 175 139 113 89 3 99 236 42 205 188 154 37 
65 149 109 105 56 19 174 33 173 86 56 232 189 143 81 2 155 142 81 214 248 100 205 206 151 87 247 84 74 133 39 21 161 144 8 89 148 191 54 228 84 215 27 222 182 220 44 248 118 35 79 35 99 254 171 69 238 28 15 152 145 190 234 208 248 56 20 165 180 222 14 66 178 158 123 33 193 216 141 232 84 22 194 212 214 175 6 15 196 228 21 175 29 223 73 172 5 226 160 22 152 22 100 186 235 91 78 140 84 83 78 201 23 182 172 147 21 201 235 177 214 202 216 141 155 196 82 146 224 206 144 50 93 45 108 240 90 177 210 137 79 99 217 108 152 59 209 237 169 164 33 188 50 75 162 10 94 39 125 236 52 246 135 173 114 221 109 200 240 192 83 254 155 163 51 48 195 87 120 106 195 75 102 215 12 240 71 125 145 210 244 111 
205 238 192 254 179 208 74 236 129 31 106 170 208 148 102 232 198 35 1 78 243 147 250 176 79 141 214 205 164 130 43 56 12 171 178 40 38 30 211 254 193 189 222 85 104 163 166 90 11 138 9 25 24 92 42 69 14 175 198 121 138 244 228 228 177 242 133 241 45 42 92 47 124 90 15 171 232 161 219 100 254 92 81 100 221 89 210 190 154 64 234 44 112 54 20 201 107 127 231 145 49 92 218 237 76 35 183 254 2 113 95 138 152 225 119 65 157 142 81 203 73 5 248 94 147 82 74 108 75 131 25 8 32 213 129 234 207 207 84 124 24 34 27 40 103 17 183 197 180 13 215 88 56 98 16 225 77 17 169 121 206 117 246 48 155 248 36 228 177 95 212 233 67 199 138 43 213 213 142 95 253 236 238 140 253 231 241 43 68 254 237 202 
112 6 126 103 80 122 224 26 190 119 197 21 73 0 250 157 148 220 77 190 27 248 91 168 72 252 163 141 1 241 39 79 62 165 207 63 6 178 74 42 175 88 252 247 97 140 162 186 152 22 44 18 128 115 151 149 208 228 244 106 3 224 73 233 67 97 43 158 11 246 229 79 115 176 211 33 242 104 68 224 105 55 47 37 75 33 26 34 2 11 133 147 22 211 139 142 196 87 185 33 1 182 67 60 89 56 228 67 223 248 40 191 82 99 160 61 182 80 118 175 160 127 104 96 70 79 19 237 15 198 142 252 208 59 139 226 29 237 102 199 59 31 64 212 233 73 114 172 50 7 26 52 45 39 109 113 103 123 205 194 200 192 184 215 164 129 170 236 184 5 110 115 96 134 249 77 242 190 209 58 130 194 83 107 121 175 102 104 10 179 83 225 
98 208 237 239 94 206 192 117 170 119 57 47 68 97 76 52 112 237 153 207 3 167 131 173 222 187 155 95 235 249 88 245 209 27 173 53 210 104 16 222 134 15 73 77 219 134 93 145 208 9 157 245 128 238 191 57 157 77 28 76 1 111 72 93 38 136 112 32 63 143 246 219 78 53 5 179 58 87 82 89 67 217 19 233 160 85 168 9 246 15 64 145 133 166 74 1 164 26 81 35 208 82 236 158 225 67 244 239 104 56 139 129 124 171 74 36 142 236 249 217 65 111 56 231 198 122 53 208 118 63 135 118 153 112 130 39 68 249 178 148 76 125 170 121 66 20 250 143 178 92 107 76 202 12 19 115 165 177 1 35 213 171 200 75 112 40 33 200 92 219 150 133 177 96 98 233 151 167 121 42 3 1 176 89 209 52 146 179 76 194 110 180 
73 138 98 219 251 50 140 115 27 28 47 101 49 247 216 57 191 250 18 220 254 155 232 161 246 252 235 94 54 123 251 242 74 185 224 148 108 183 46 251 156 93 75 131 184 91 192 69 41 151 88 51 231 187 209 119 34 167 166 220 221 246 106 253 106 245 118 251 215 224 253 57 109 26 112 74 15 27 123 110 144 135 148 145 243 93 41 223 71 109 172 254 22 202 26 120 65 96 239 15 211 58 98 206 183 34 113 201 143 236 39 114 251 5 143 243 167 3 56 249 181 8 93 5 133 62 136 50 11 207 6 192 94 182 196 110 119 172 44 200 137 92 119 59 3 2 117 80 79 138 46 209 219 198 161 136 115 72 67 99 229 185 142 192 135 201 217 186 60 166 200 203 16 224 240 242 97 77 226 158 0 172 18 2 227 231 36 72 79 35 34 150 
30 195 181 108 253 159 63 5 144 125 166 16 135 58 43 170 34 165 167 194 123 177 107 185 136 156 191 178 52 64 152 191 19 226 249 48 132 143 149 17 94 50 171 185 231 105 42 190 12 101 164 176 69 198 247 252 166 194 40 189 164 151 69 93 93 211 221 118 148 197 31 236 108 94 103 217 7 73 101 175 245 165 138 102 144 107 208 59 129 123 111 164 66 46 5 241 49 186 9 246 54 4 200 102 55 139 5 196 143 23 247 12 195 7 100 181 24 249 203 125 191 219 128 183 60 28 154 162 34 38 74 70 214 56 11 46 149 143 219 232 120 28 245 245 35 221 65 205 178 47 52 244 159 51 10 178 35 143 113 178 142 156 186 32 108 11 152 230 243 4 203 91 175 224 154 93 187 175 186 18 44 122 88 102 183 15 100 33 42 221 172 121 
178 137 35 254 244 29 80 195 33 220 215 69 142 151 31 165 175 18 226 8 112 20 49 185 56 113 152 144 227 95 169 202 46 49 66 18 157 176 187 61 109 33 23 201 8 190 125 149 101 28 42 69 200 76 28 20 119 227 98 235 127 166 67 232 23 183 182 45 179 242 198 194 83 184 186 217 28 82 159 169 7 178 253 180 162 64 77 243 146 165 146 54 109 217 9 111 112 157 176 96 187 217 193 251 241 120 25 50 71 108 21 70 145 132 31 2 99 143 201 252 153 160 225 141 95 149 27 234 36 97 206 201 156 177 48 155 241 26 252 31 180 67 104 99 207 15 240 173 151 24 208 5 94 141 62 31 213 91 143 183 11 189 172 216 213 50 219 24 206 3 237 106 200 38 234 216 99 131 253 18 72 145 40 34 234 145 46 30 230 57 229 45 
205 185 120 138 109 235 172 156 27 30 239 163 182 106 17 46 11 1 220 61 214 129 0 59 51 242 38 136 142 10 172 38 230 48 222 13 109 28 193 236 121 241 218 124 159 62 96 161 94 39 140 119 94 13 11 174 162 235 180 202 105 44 183 163 133 17 214 211 210 95 172 140 150 98 186 17 179 212 1 212 20 190 5 56 103 18 203 10 155 177 87 228 86 44 220 1 39 200 174 175 88 186 69 119 235 220 161 121 81 143 60 204 16 68 163 15 173 123 101 37 217 38 102 172 58 2 124 46 237 104 189 140 61 224 121 203 31 141 112 236 181 170 149 147 87 76 63 59 67 119 127 120 27 178 240 124 67 241 201 176 7 161 222 116 96 62 145 192 195 151 116 170 121 19 192 207 225 131 124 80 152 29 75 93 41 23 27 227 189 56 240 211 
22 206 60 12 184 105 105 42 216 98 53 29 215 96 98 70 156 55 242 13 36 79 106 12 185 199 97 164 242 64 152 230 227 74 210 232 87 8 146 140 11 143 252 216 163 203 236 97 149 3 231 61 102 197 218 193 200 11 235 99 102 174 221 175 131 59 84 253 163 62 38 93 131 175 84 137 24 64 55 84 129 82 101 11 195 7 17 167 31 134 146 15 42 161 88 188 175 125 84 204 147 27 89 211 50 161 21 241 122 136 195 147 64 55 197 110 237 21 111 103 54 31 24 93 181 111 231 57 160 139 156 234 169 10 199 72 150 131 89 104 106 154 57 148 138 70 188 225 239 10 172 104 58 208 238 222 64 138 118 140 146 160 159 13 78 127 141 110 65 54 241 59 245 147 243 124 178 91 232 147 7 152 131 52 196 159 205 131 197 182 10 183 
215 46 60 178 225 63 184 72 222 183 130 91 182 178 64 182 225 67 66 188 145 181 254 167 47 81 160 3 142 184 84 206 84 110 151 236 109 64 115 245 67 233 250 67 10 7 147 173 77 127 17 194 243 6 229 142 78 74 253 84 247 192 202 64 67 166 228 124 128 119 42 214 80 152 228 110 146 75 253 5 84 129 182 178 113 52 76 179 57 172 208 161 214 196 34 171 216 206 45 42 150 164 157 26 138 122 227 155 220 173 140 244 39 150 160 54 56 33 51 217 153 231 10 133 91 163 26 204 253 23 158 195 25 114 2 166 183 216 15 168 249 36 219 207 127 182 29 74 147 132 58 111 227 230 22 215 248 169 253 233 192 157 47 143 45 9 53 10 43 251 11 8 45 179 209 252 47 68 35 126 130 57 24 201 194 240 23 15 128 208 247 191 
42 172 195 229 43 24 246 115 246 194 219 90 117 16 221 75 64 14 114 143 27 230 231 109 207 193 63 251 79 55 131 175 7 224 211 214 212 116 95 243 74 174 219 103 190 25 102 1 68 182 202 180 171 122 201 128 40 210 116 240 102 163 1 73 38 162 92 209 155 25 124 235 249 95 172 166 240 68 164 131 48 59 246 47 151 148 190 185 209 212 92 236 95 200 209 52 61 225 206 80 215 189 29 15 129 3 151 205 113 16 188 95 180 196 64 85 165 204 216 155 229 180 4 75 108 104 119 152 173 216 196 88 60 201 76 159 190 59 85 224 39 56 87 38 239 196 53 113 236 88 224 210 45 106 130 53 148 205 5 178 8 232 89 157 25 56 158 5 180 117 103 29 34 153 245 10 190 177 84 91 97 72 47 229 90 152 165 206 104 161 208 65 
190 107 166 66 164 246 48 8 172 206 209 62 117 113 17 191 203 84 42 56 59 62 46 5 89 119 99 95 11 67 86 154 232 196 25 145 102 199 101 69 31 127 189 16 49 96 92 72 232 165 220 196 174 33 222 41 73 58 239 94 12 163 71 53 174 66 119 123 240 184 44 40 208 144 226 68 236 57 131 66 132 197 93 130 8 109 143 131 46 138 21 237 171 104 25 240 42 68 133 167 5 203 105 182 13 215 242 131 19 176 14 154 142 58 107 221 168 228 185 56 191 23 20 2 157 88 65 154 158 50 248 237 221 176 46 178 87 231 246 168 248 53 60 95 217 32 250 208 189 160 254 29 195 2 42 88 245 117 31 36 147 141 69 201 168 207 16 110 27 207 138 228 3 72 30 116 86 102 144 86 241 177 157 156 241 246 242 190 86 194 109 181 
151 183 153 102 93 38 38 50 45 167 166 60 156 74 250 208 9 91 105 145 221 111 188 80 11 61 81 219 65 240 2 2 83 112 184 118 55 57 151 202 154 3 150 69 162 235 74 82 102 144 247 207 185 81 14 55 242 210 209 112 93 146 86 8 218 212 96 207 151 252 99 100 26 48 54 57 214 234 254 65 30 235 28 229 5 162 3 141 207 17 18 164 50 238 65 241 0 41 165 25 103 234 239 16 215 68 213 220 22 232 114 222 86 222 45 90 27 169 97 161 155 69 102 101 226 101 83 213 88 200 78 170 75 40 193 64 157 249 109 183 143 185 29 95 59 54 149 75 93 88 145 35 150 234 239 208 189 8 108 236 125 242 66 201 153 139 56 194 107 44 18 49 204 51 201 58 39 47 162 242 212 175 165 1 147 166 226 43 143 153 254 127 
14 79 56 10 184 74 187 177 243 106 226 208 241 108 42 221 63 95 254 99 106 164 204 195 50 102 244 23 221 111 79 115 33 49 94 243 54 57 11 160 56 220 147 191 146 154 228 68 90 47 140 43 49 234 232 104 58 16 183 180 64 205 91 126 249 190 169 81 57 38 54 182 184 102 137 27 60 86 133 226 109 192 238 228 71 103 43 211 12 21 75 34 163 146 12 24 67 36 125 119 229 33 219 176 124 56 205 114 118 149 80 56 168 160 49 61 99 193 164 175 195 145 194 118 103 108 188 213 125 169 15 108 182 204 113 150 156 142 68 102 130 225 20 216 99 56 163 36 210 48 114 6 113 94 65 167 15 195 236 55 81 76 12 223 234 146 106 41 180 59 56 33 71 152 238 224 86 193 14 129 53 120 126 203 232 44 28 72 229 173 177 168 
39 102 11 205 46 145 144 215 84 195 94 169 48 34 53 157 47 158 49 168 105 214 57 45 2 11 98 35 109 34 184 213 53 22 222 236 172 138 197 142 59 46 27 238 109 249 7 197 249 171 206 242 62 129 222 208 65 188 164 166 78 96 227 17 216 188 213 74 43 121 85 21 205 163 189 161 79 253 48 171 97 204 131 181 111 212 149 171 166 129 143 22 13 230 104 18 246 81 166 172 223 233 151 177 76 216 112 158 36 45 139 212 60 86 126 227 165 6 191 33 99 69 224 89 78 99 233 58 33 109 169 208 68 9 144 181 70 180 17 197 74 128 203 114 201 12 149 72 67 214 174 61 96 175 50 89 89 186 88 241 52 142 117 203 54 43 94 158 212 205 66 247 67 82 26 221 220 232 145 251 239 172 211 197 68 70 51 222 81 171 47 176 
178 223 96 231 79 130 164 107 66 82 147 169 39 123 218 3 237 72 156 0 224 166 25 243 225 115 64 247 170 217 223 210 24 175 180 35 36 53 29 231 68 147 163 231 181 231 53 41 41 241 217 193 64 157 205 202 210 130 15 199 19 215 72 189 142 33 175 24 29 232 100 30 160 85 76 198 11 40 15 94 98 181 76 132 65 221 128 195 68 133 26 33 201 200 121 40 22 89 129 135 227 116 162 193 174 211 17 65 70 138 142 35 153 69 245 176 220 55 164 228 170 145 201 184 156 179 175 244 17 39 13 254 134 170 187 72 208 200 123 99 27 71 11 85 12 63 151 80 163 72 161 76 130 142 102 219 138 234 39 48 141 25 79 1 168 198 6 201 42 201 101 7 204 223 148 241 120 112 98 121 111 89 132 248 153 37 111 94 29 186 65 177 
89 199 109 221 75 24 118 116 234 27 232 68 173 17 194 78 11 39 146 110 46 205 209 251 205 96 146 241 4 4 172 215 246 40 234 166 185 186 31 234 185 62 98 242 212 219 171 192 162 143 223 114 44 63 6 231 62 213 180 128 185 132 136 58 176 216 175 38 48 4 241 178 228 53 206 94 202 173 111 165 24 174 195 223 211 172 172 88 204 86 229 249 71 39 173 210 101 23 27 157 24 131 212 140 40 128 13 166 154 79 172 3 159 197 81 252 189 13 251 40 205 225 173 43 229 50 89 239 235 115 101 233 206 54 81 191 173 111 199 105 123 223 208 12 230 145 168 210 230 120 245 58 159 109 43 166 171 116 6 89 34 59 50 75 117 224 133 15 31 188 243 144 168 97 56 95 19 1 73 132 48 212 66 36 46 30 24 120 212 211 224 53 
98 105 30 233 161 198 90 175 69 77 142 235 110 242 233 105 158 6 253 2 252 89 48 29 69 35 191 232 86 219 71 4 55 25 190 202 134 16 129 179 54 174 107 58 223 195 102 2 36 109 13 54 242 117 81 56 236 12 117 192 210 219 56 179 126 24 102 177 213 157 167 34 134 21 52 242 6 92 195 4 37 206 42 226 1 61 249 67 242 6 178 211 16 52 210 52 155 31 105 138 100 195 36 233 239 177 237 61 88 100 50 51 47 61 11 154 93 229 203 228 59 190 58 44 42 20 5 90 200 82 105 253 122 250 27 24 38 22 199 217 51 136 97 116 111 198 116 219 174 139 163 4 173 207 51 157 156 79 231 244 55 96 201 183 95 239 192 33 198 58 75 58 246 165 243 162 194 81 236 153 182 249 3 216 92 94 151 196 132 40 104 223 
78 8 225 12 79 225 10 208 1 95 180 125 45 165 157 226 228 100 30 57 202 238 189 152 233 186 36 83 214 130 197 45 203 49 125 48 194 73 20 92 113 16 125 17 115 63 219 222 181 36 82 206 70 188 56 136 133 187 134 170 6 124 52 96 216 86 3 39 138 144 2 120 136 202 74 85 218 159 59 64 109 160 197 224 38 33 221 254 104 54 110 219 219 223 240 3 54 18 166 203 215 253 247 181 205 241 92 153 66 150 25 15 209 142 218 95 40 230 75 165 103 202 64 215 42 83 116 112 186 104 109 123 201 171 222 31 162 151 154 130 153 62 156 220 110 208 74 91 91 227 86 43 245 84 135 176 155 68 254 180 180 96 239 129 9 25 177 225 245 73 17 83 81 177 185 213 113 50 214 193 72 232 228 218 59 138 93 97 184 230 95 157 
124 22 197 114 5 43 231 196 126 48 132 155 148 208 135 17 220 108 83 83 19 158 218 70 193 230 214 130 95 73 178 208 139 184 83 178 199 64 73 25 133 65 236 8 84 205 224 55 141 16 198 28 197 2 174 61 182 170 214 186 23 81 80 77 192 185 2 33 102 167 10 160 94 140 73 236 95 156 112 211 229 83 133 174 230 41 38 84 21 97 100 253 124 159 22 67 101 244 244 62 61 39 189 231 148 198 167 210 202 73 148 111 66 151 75 42 107 239 107 187 227 21 182 121 182 50 127 233 213 113 118 64 46 118 167 63 73 169 123 142 153 253 155 193 113 76 214 223 46 239 112 150 196 126 220 210 211 100 137 107 118 238 219 47 186 212 94 235 148 137 83 39 200 76 108 70 59 64 78 150 55 178 172 43 9 203 207 227 247 114 5 88 
144 54 69 79 230 125 44 126 94 116 0 243 82 34 89 94 128 65 107 43 2 95 252 27 134 144 241 97 57 125 42 144 254 106 30 92 169 230 5 176 25 250 164 123 175 82 36 72 251 27 151 173 128 223 242 241 108 167 218 196 114 244 121 105 241 24 57 198 216 74 109 119 99 35 119 195 41 0 127 221 38 10 189 89 28 78 199 167 216 139 175 249 206 204 14 13 230 24 219 33 131 239 160 94 181 115 124 179 239 187 168 112 100 70 230 117 165 160 51 119 48 218 122 11 22 124 113 159 86 98 226 87 133 40 51 124 16 237 245 147 90 6 16 191 122 147 37 171 99 148 163 99 122 177 136 64 163 121 140 65 1 96 11 116 210 105 153 55 73 172 148 10 239 42 221 239 153 16 123 46 155 4 218 244 72 99 135 223 226 198 151 196 
203 96 119 159 146 47 62 127 91 43 20 194 54 54 57 146 251 58 223 198 159 230 202 207 199 174 119 0 46 147 60 132 116 132 48 184 76 49 198 48 193 2 141 136 180 120 18 51 153 94 242 215 116 178 173 70 155 80 121 19 56 162 154 14 119 208 25 213 121 174 210 206 58 130 234 230 87 172 101 131 65 161 183 95 172 253 221 210 21 22 1 246 195 128 25 223 185 137 79 251 55 115 34 32 17 31 181 174 177 141 129 138 3 36 152 235 141 184 167 188 55 14 0 243 66 99 216 178 76 44 238 233 107 49 109 222 168 220 125 109 32 38 89 207 79 88 58 42 18 99 45 214 148 42 223 24 35 2 228 99 0 36 70 252 204 219 205 214 15 111 102 56 113 83 129 144 185 209 124 107 207 2 229 152 2 198 132 27 44 89 213 19 
186 140 143 245 87 28 49 3 19 170 203 25 233 86 161 195 169 146 122 190 110 7 24 215 206 39 237 66 176 136 113 94 224 225 225 23 204 95 40 11 184 107 82 119 32 128 47 69 152 190 63 235 67 21 29 115 198 247 238 120 207 213 68 70 3 71 8 35 164 55 33 215 248 47 104 19 49 71 218 64 100 215 73 65 241 58 61 242 132 121 193 206 118 173 94 188 32 249 225 87 131 181 187 94 82 125 221 143 4 209 169 241 36 56 16 84 30 65 203 62 48 143 53 145 98 37 29 170 157 251 226 16 187 192 114 173 228 230 76 148 225 138 52 215 98 84 99 229 202 66 251 181 240 98 44 149 198 196 224 94 77 226 115 71 17 181 145 254 31 223 216 168 164 179 218 89 156 125 110 120 22 215 208 29 175 107 75 147 12 163 145 226 
51 121 103 76 178 72 91 185 165 217 77 244 86 18 34 191 75 109 251 121 198 149 224 43 253 11 193 181 236 17 244 64 149 179 164 0 23 80 80 152 63 58 158 101 73 199 222 136 178 177 230 107 146 61 196 16 213 183 34 9 26 157 229 88 117 165 20 15 181 219 168 42 141 9 70 193 124 167 145 5 183 148 184 251 234 36 22 167 148 165 63 180 145 209 164 246 148 122 95 164 232 116 117 21 71 70 2 118 132 186 137 203 210 12 200 55 56 233 119 122 177 182 200 147 150 33 244 239 147 22 87 16 131 249 139 79 236 63 240 217 40 248 167 85 130 59 87 31 222 232 246 222 45 103 230 119 229 245 76 234 22 50 210 35 86 243 96 23 92 52 138 193 198 221 40 144 181 48 121 53 234 39 53 12 100 106 201 39 73 127 19 103 
105 109 132 132 152 44 116 56 189 33 28 129 28 126 116 148 177 254 110 90 61 1 104 12 128 61 129 237 202 210 229 35 18 14 220 4 114 81 124 129 235 209 95 194 121 189 246 3 149 76 121 233 24 36 130 196 54 131 111 32 164 88 36 239 99 174 151 115 54 251 242 151 225 146 43 197 247 153 196 19 33 243 103 128 80 133 173 162 122 112 224 200 70 47 14 244 10 152 78 98 146 20 232 180 101 202 21 32 6 79 29 124 54 58 174 48 164 35 166 34 73 60 90 212 100 89 228 228 48 108 45 154 179 121 95 219 9 177 8 95 103 61 164 15 152 249 180 148 179 128 30 246 37 160 173 205 28 156 251 121 72 114 99 12 13 81 69 100 18 2 158 106 71 249 175 57 227 168 3 15 23 105 198 238 63 250 56 248 173 81 209 250 
167 121 249 37 61 52 162 22 36 158 181 12 42 208 79 138 103 135 197 155 67 205 233 207 209 4 1 162 98 84 211 28 194 109 12 5 247 148 55 240 100 54 84 211 116 37 201 81 19 219 251 49 112 76 197 156 61 201 76 179 86 198 28 184 170 220 148 33 87 137 253 154 172 140 201 245 14 146 120 230 68 173 159 58 65 203 197 135 127 71 249 224 47 37 218 173 169 86 232 254 179 122 66 151 167 57 66 62 152 130 84 211 219 69 98 6 130 188 183 103 44 235 187 119 7 69 240 114 169 68 33 47 4 226 146 10 147 38 54 1 65 185 15 116 36 32 46 35 83 157 166 164 51 9 206 52 78 194 12 13 100 48 6 26 231 61 180 27 240 59 92 30 198 122 182 92 189 57 51 90 241 29 36 10 71 122 43 164 189 6 40 140 
44 157 117 101 69 20 234 214 229 28 197 143 147 242 197 45 173 66 31 56 249 208 154 167 245 242 48 6 4 238 241 25 160 243 239 129 206 215 252 15 174 39 110 160 114 237 206 27 162 91 213 183 199 169 64 86 50 113 64 22 169 195 111 3 107 73 152 189 147 106 204 130 212 235 108 10 174 122 101 226 159 193 222 63 187 156 218 53 234 23 239 20 41 8 96 225 134 73 48 141 25 218 79 43 230 219 75 211 200 201 163 112 221 138 105 95 34 232 56 178 145 79 210 215 220 36 188 180 6 49 12 182 227 176 12 166 123 139 175 113 182 80 146 147 48 98 167 113 110 56 221 59 164 166 17 20 126 155 105 78 229 254 253 44 115 103 147 10 130 219 191 155 83 121 9 17 191 155 213 19 152 189 30 88 241 91 39 216 106 184 93 73 
144 73 16 108 45 157 85 23 23 203 239 87 140 16 143 202 34 35 184 12 235 89 169 177 124 182 182 1 248 76 14 198 19 251 216 37 74 94 164 112 109 213 200 34 216 131 95 175 103 0 243 177 241 219 133 61 51 216 14 51 166 123 137 219 244 45 222 202 24 5 57 31 1 224 108 66 53 7 4 231 247 88 55 55 145 27 182 138 199 118 213 105 105 0 139 190 52 139 107 253 169 166 137 23 254 222 123 114 58 155 236 213 250 11 40 100 149 206 78 72 223 19 48 159 241 45 79 230 77 108 36 98 167 61 215 165 145 165 70 169 172 222 58 51 137 252 117 79 18 40 237 172 104 146 14 45 197 65 36 156 180 199 117 245 127 23 42 97 192 220 163 224 80 135 129 163 144 119 60 19 208 228 166 102 211 208 98 138 236 19 81 35 
58 119 39 55 139 233 147 140 4 161 5 150 207 49 156 214 29 191 129 31 131 25 126 84 3 112 192 5 205 108 125 87 83 135 139 71 185 69 175 143 170 96 186 201 11 140 85 80 167 147 65 39 52 68 68 81 208 121 101 175 47 120 127 202 141 230 28 213 164 103 235 51 57 123 34 246 88 202 137 15 130 194 3 174 25 127 248 232 9 232 107 95 64 24 122 221 81 170 112 191 136 211 231 223 96 152 178 110 14 80 181 110 234 228 178 177 213 119 29 31 201 5 139 109 224 36 69 77 244 148 60 133 58 146 143 132 215 238 97 2 153 198 77 211 199 1 197 42 253 82 189 231 75 81 158 245 95 13 33 208 193 189 242 193 32 167 112 207 150 153 3 124 50 158 60 237 121 253 4 92 29 229 47 39 137 46 91 203 114 143 25 103 
29 252 135 125 149 62 206 29 82 132 198 75 184 12 20 211 8 52 241 238 191 21 26 236 21 148 187 65 18 103 126 238 48 57 8 63 209 210 168 16 1 248 75 45 131 58 222 230 169 174 219 92 234 188 78 190 72 127 164 66 31 55 234 62 9 22 106 85 120 74 156 15 110 212 112 165 59 158 203 245 234 147 172 192 231 5 66 33 217 199 249 199 115 78 37 247 161 250 172 105 249 240 169 33 218 211 161 19 52 56 13 74 149 99 157 144 71 80 19 45 59 110 175 204 209 104 17 95 36 38 11 166 22 224 238 86 251 60 133 207 143 84 98 92 155 85 84 84 30 199 172 226 32 216 251 80 51 243 249 70 222 244 85 102 181 138 64 89 169 241 240 44 150 87 143 190 195 153 202 75 175 5 104 92 242 179 18 156 162 110 44 44 
248 78 251 211 151 24 174 56 128 20 0 27 246 79 237 235 245 222 39 18 151 165 26 135 135 226 85 165 8 48 79 33 76 224 253 32 205 242 88 46 91 146 37 94 85 211 4 52 0 21 192 85 20 228 223 134 205 201 104 111 203 203 244 157 244 143 98 117 158 63 57 146 144 150 159 64 85 156 113 117 80 103 120 250 73 173 241 102 24 236 115 16 111 240 46 120 99 186 177 92 44 56 92 111 46 78 45 64 124 241 173 44 254 215 211 222 232 7 201 208 120 168 55 56 131 198 7 125 43 108 127 195 109 167 244 254 37 162 16 80 241 149 119 241 241 225 69 99 140 206 135 113 60 12 182 67 32 37 33 9 228 221 234 43 213 148 221 87 118 144 207 150 147 129 29 78 78 194 138 186 253 162 120 168 173 77 14 106 246 181 132 51 
5 229 252 163 111 232 34 133 225 49 60 71 120 229 18 166 59 214 215 225 146 49 51 53 82 118 185 178 112 236 57 75 56 39 126 197 207 219 158 18 119 95 209 112 54 33 207 238 213 249 58 20 231 151 52 214 107 111 124 138 252 127 209 201 48 79 222 127 201 207 5 237 131 186 82 143 236 48 13 193 234 177 114 100 224 206 5 27 20 233 237 92 100 34 166 168 200 94 214 91 64 198 67 206 193 88 145 152 10 59 123 89 5 7 29 17 156 79 16 157 176 184 57 172 114 190 79 10 8 191 84 4 146 254 90 168 113 138 16 162 56 85 132 149 107 16 125 3 177 188 49 207 36 117 166 162 123 227 12 254 220 21 242 190 82 27 219 115 243 117 0 95 187 10 27 241 103 184 242 118 59 251 160 91 0 221 63 188 31 202 23 7 
67 113 178 250 117 112 25 125 75 191 74 150 2 143 244 167 214 42 167 215 236 77 81 42 99 185 114 170 204 24 71 119 81 15 68 204 115 87 237 60 189 244 93 233 248 200 222 99 179 29 15 236 149 68 241 140 177 5 121 141 23 196 33 124 214 117 214 120 218 73 153 218 104 202 38 162 167 185 242 208 130 55 59 191 116 138 145 92 95 225 60 70 138 184 142 20 243 231 246 251 34 13 235 140 16 189 248 56 210 139 173 5 213 229 19 176 229 202 61 184 54 163 187 251 145 228 237 210 130 19 242 225 13 0 50 202 23 254 75 55 94 252 30 96 12 165 222 88 186 118 104 41 217 234 208 112 29 61 68 198 218 176 108 242 172 116 240 75 192 178 227 20 184 205 106 71 71 197 116 35 74 222 245 108 186 19 177 119 5 37 234 171 
101 69 151 16 158 189 150 64 161 113 173 235 138 164 158 54 225 5 184 101 132 177 69 149 122 184 116 116 160 244 252 32 144 188 207 0 164 152 171 104 20 77 197 166 230 113 172 28 0 217 158 99 247 190 185 237 105 155 74 63 211 174 245 251 30 120 89 142 159 128 209 76 71 97 214 208 139 212 92 96 137 141 164 3 64 86 77 214 138 112 162 56 134 87 120 182 126 2 17 14 70 243 247 93 185 57 230 142 237 114 4 146 67 102 103 206 90 99 132 84 222 12 86 173 74 139 117 31 197 64 74 39 254 11 106 64 223 124 117 149 186 218 62 1 81 247 46 174 248 212 238 187 9 167 137 38 46 123 53 111 183 176 212 233 93 195 104 7 123 172 178 69 0 112 108 225 106 195 214 144 110 124 215 127 157 169 236 34 71 116 105 40 
192 143 140 169 57 174 242 182 17 225 253 156 202 61 225 1 252 82 100 54 191 252 139 159 133 30 38 94 210 167 193 96 243 119 154 17 35 128 63 254 137 220 239 197 78 149 53 151 191 101 217 229 171 132 13 198 182 110 24 58 106 68 109 83 179 42 64 1 123 3 104 243 94 227 25 127 67 23 13 159 91 48 2 167 169 111 166 116 90 112 114 172 134 93 39 64 209 229 77 120 7 149 186 101 222 248 23 32 120 110 53 116 170 197 242 40 171 47 39 246 231 103 112 169 224 114 251 102 92 143 131 159 88 171 221 34 211 176 249 151 226 38 34 196 57 23 182 56 155 72 247 222 193 90 36 26 197 117 116 14 192 40 95 34 211 120 74 161 25 184 56 66 180 249 10 154 117 38 178 52 126 14 73 242 254 15 151 176 58 244 206 170 
254 44 254 68 237 49 71 243 199 68 0 242 33 39 17 115 249 106 183 59 227 140 239 208 209 220 93 129 85 148 122 216 57 58 4 51 25 117 203 216 241 120 16 65 152 39 138 65 190 111 62 241 179 10 202 71 222 82 156 60 250 77 62 116 113 11 236 116 242 74 219 43 164 246 83 113 254 128 232 96 30 124 116 125 54 75 197 235 146 49 63 4 31 116 110 230 243 135 108 150 114 72 70 143 13 217 96 179 183 94 77 83 102 183 220 206 30 208 56 179 148 12 249 181 243 122 59 42 209 223 13 206 131 127 54 147 220 143 223 186 125 252 170 190 197 25 30 71 43 157 35 141 146 116 30 234 231 140 15 175 67 224 137 132 171 62 167 31 187 194 56 44 10 228 254 89 158 53 27 246 220 30 242 236 254 66 81 52 2 122 16 31 
12 216 70 194 111 140 44 116 158 187 108 101 0 236 41 0 74 54 3 223 114 75 225 40 162 47 194 68 83 223 52 173 90 15 30 175 85 230 242 79 248 139 82 18 140 140 117 11 237 135 162 227 47 225 79 53 236 160 83 30 4 7 153 16 22 164 59 154 79 251 85 209 248 190 55 49 231 99 197 167 67 100 242 254 154 215 79 115 221 204 153 178 38 23 40 21 4 118 120 215 108 40 196 71 9 222 40 200 18 212 247 241 70 69 22 58 225 62 19 106 6 165 235 55 110 152 143 221 218 68 254 32 152 222 234 26 206 160 123 41 230 84 233 63 60 120 65 225 45 140 244 91 112 186 97 69 66 101 215 6 203 172 2 29 240 207 220 171 195 243 30 131 102 159 6 87 106 137 63 30 92 161 247 227 7 65 65 83 7 120 230 52 
144 203 197 42 75 66 126 23 119 17 179 200 242 254 85 84 79 147 70 189 186 125 119 10 214 29 224 242 247 232 108 224 206 106 32 104 189 102 7 247 39 37 200 56 8 142 154 137 163 56 56 50 192 213 101 92 160 174 163 208 180 132 71 199 55 246 160 203 82 250 240 111 120 98 80 116 73 150 103 75 141 119 126 188 60 106 224 214 95 200 132 187 216 80 141 78 173 154 20 182 128 85 84 120 189 1 20 87 26 164 90 91 2 129 97 172 180 103 106 142 82 6 224 191 157 110 87 143 103 246 218 248 5 202 58 188 220 191 141 29 55 152 110 81 22 16 202 69 200 203 235 76 78 3 182 149 117 99 201 171 201 86 52 207 71 233 114 32 176 177 11 200 168 75 82 152 249 253 130 250 8 147 85 127 59 214 123 103 162 16 76 225 
34 249 52 203 89 148 36 51 198 208 248 197 222 174 182 139 30 121 225 198 174 178 138 72 96 20 3 44 38 204 0 15 231 219 134 90 163 170 118 80 96 9 105 134 123 8 0 84 194 23 102 119 151 30 21 189 242 44 120 91 109 194 254 243 34 243 0 217 67 222 161 16 83 208 203 235 166 231 97 10 29 26 26 109 127 13 106 222 27 13 163 244 108 121 207 171 228 191 125 7 86 242 14 23 47 144 21 205 82 87 178 70 147 153 247 206 112 2 193 21 170 194 32 121 3 214 228 57 200 56 115 161 126 184 148 109 35 210 68 62 193 16 62 240 162 60 46 151 65 157 11 72 93 209 198 52 233 221 172 203 131 250 39 160 0 133 140 173 100 176 41 243 90 250 224 133 205 116 6 132 110 248 185 90 173 123 12 121 238 163 36 139 
115 214 176 26 231 133 167 114 249 39 89 36 83 75 110 220 171 248 252 154 94 81 183 71 45 228 163 102 163 77 19 35 168 8 202 203 72 77 27 12 26 158 58 251 49 178 39 59 85 14 26 11 129 241 164 23 154 124 27 44 167 175 181 73 51 113 48 250 252 222 31 136 82 13 242 228 22 191 20 15 153 201 225 189 26 16 157 110 71 70 202 119 164 15 190 74 37 205 157 222 213 14 249 128 66 217 96 168 84 216 204 124 198 215 235 77 80 34 72 159 120 201 111 200 147 141 231 74 101 63 49 18 6 42 84 143 102 178 66 154 21 150 42 27 64 18 4 172 79 226 67 188 47 246 186 174 160 10 151 93 141 160 50 119 111 144 211 63 150 73 3 32 204 132 77 153 43 23 90 103 203 121 2 107 75 8 158 157 240 69 105 70 
103 201 112 223 188 251 152 57 215 171 203 77 239 183 152 73 68 121 107 115 246 181 7 153 236 39 78 84 162 233 51 215 55 237 79 142 67 226 70 19 184 242 52 181 230 20 65 19 203 49 132 91 219 111 20 21 87 195 205 221 190 95 52 116 16 165 109 135 234 15 247 82 104 50 201 35 7 167 248 213 20 120 198 253 78 187 157 85 223 208 185 196 11 180 65 94 222 44 55 70 85 30 76 212 124 149 46 225 210 177 124 129 15 221 206 129 0 140 236 214 224 143 3 2 138 213 78 34 75 89 112 252 37 31 198 215 33 78 144 107 221 67 130 30 37 113 68 68 245 5 9 230 135 237 91 142 53 35 148 133 240 39 109 115 168 56 161 30 121 94 212 13 7 245 105 169 122 225 84 117 183 170 19 197 212 29 170 195 96 155 154 86 
176 233 50 125 160 199 216 122 207 194 49 76 152 80 167 250 6 28 28 147 95 94 52 23 212 6 123 164 144 210 168 232 197 220 108 0 121 139 116 141 150 111 16 123 127 96 113 22 116 241 237 142 233 241 169 236 96 143 22 98 143 138 178 108 203 110 104 72 152 52 11 116 0 111 82 61 189 183 178 41 56 48 44 124 27 166 107 208 161 220 142 247 248 59 149 24 66 228 41 99 9 219 6 100 195 152 201 33 150 209 170 218 81 138 233 111 155 34 222 0 213 19 150 188 161 56 11 22 197 48 105 250 63 159 44 152 70 222 77 150 163 186 204 155 19 228 61 160 105 162 176 223 14 66 103 28 124 183 157 89 102 75 247 46 154 148 192 205 7 86 49 202 34 176 46 156 19 142 37 26 186 172 196 93 98 175 26 204 32 202 44 97 
233 130 33 11 14 117 135 212 220 54 189 43 137 8 209 133 124 149 187 219 65 231 129 129 169 227 178 171 99 48 14 1 196 34 6 60 34 182 104 45 130 164 112 189 189 236 70 69 234 23 18 91 46 78 134 243 30 169 14 47 145 232 185 241 250 207 32 4 143 19 58 134 42 46 122 60 3 89 34 248 148 181 47 88 64 121 135 27 107 50 133 241 102 26 94 98 122 124 189 220 133 210 131 90 234 238 86 139 181 114 216 215 117 190 1 204 112 8 189 92 41 189 132 182 38 153 98 130 106 19 227 124 50 90 68 210 134 115 243 217 71 59 74 25 74 132 94 190 180 53 6 61 88 30 68 2 205 44 61 217 185 8 152 126 154 219 185 116 80 167 236 95 149 33 89 48 60 127 140 106 76 151 62 26 4 155 140 49 141 42 193 215 
130 67 88 155 184 198 246 1 175 134 181 201 193 187 78 39 239 40 163 233 154 11 97 128 48 23 163 25 50 174 145 243 90 16 183 107 206 62 192 29 109 115 130 60 199 74 126 89 120 51 93 184 30 138 18 113 251 47 222 178 104 25 100 128 171 189 131 178 21 52 33 173 226 53 105 192 126 243 49 162 253 239 117 118 185 211 22 55 103 10 89 228 73 194 238 161 253 86 234 163 227 221 140 48 164 93 178 178 163 121 188 252 73 234 141 213 164 109 239 247 59 47 14 87 240 175 172 150 54 148 166 188 172 102 151 58 201 72 201 148 155 41 78 22 170 182 202 132 48 138 34 178 100 222 148 30 85 49 184 85 33 220 58 193 64 145 222 46 54 1 238 210 87 82 46 222 103 111 241 179 31 55 232 11 152 249 60 245 243 72 3 166 
144 72 41 244 25 79 139 185 150 226 93 208 224 86 151 71 126 237 160 157 243 218 35 175 189 206 203 113 91 30 239 116 104 151 150 23 157 45 85 211 191 231 134 199 156 127 89 215 180 149 205 6 169 15 160 164 213 101 71 52 249 36 1 56 77 182 124 20 169 175 60 220 82 82 76 143 186 124 9 129 34 47 145 136 147 29 76 46 191 12 137 106 71 201 207 243 22 84 169 11 26 9 248 187 235 203 77 245 37 85 2 117 32 252 239 251 110 2 76 229 131 153 179 29 191 254 160 136 202 181 44 149 80 34 212 201 120 226 210 232 40 145 47 30 49 216 30 172 144 57 161 0 1 4 107 52 143 189 158 229 19 204 8 237 1 6 195 59 200 37 209 78 77 45 44 216 214 138 104 187 78 146 157 160 49 239 100 36 42 243 4 187 
68 135 221 172 141 152 136 190 78 45 124 131 87 210 56 152 221 23 75 60 76 96 245 217 244 72 25 81 183 73 193 4 110 235 60 0 253 31 143 142 181 111 126 100 104 40 113 75 14 127 56 20 245 196 245 51 17 72 220 79 92 37 164 146 11 137 193 166 78 155 240 123 223 103 145 174 194 80 132 142 207 253 57 134 144 41 61 128 178 104 111 4 1 65 91 212 123 157 162 155 27 41 199 251 80 220 172 28 171 195 203 71 40 130 51 88 107 234 156 158 194 72 208 109 223 181 129 223 12 172 162 217 235 36 198 240 230 85 87 129 147 101 69 37 151 159 96 76 13 163 7 30 254 98 208 29 172 7 143 37 34 97 171 177 247 215 148 37 160 126 12 18 200 77 79 11 120 78 102 165 146 172 39 99 47 215 144 55 115 84 101 243 
208 252 133 142 238 35 124 117 17 137 203 132 113 156 22 189 233 167 199 77 181 64 101 196 124 49 79 118 70 152 166 156 238 116 59 198 88 198 16 1 230 191 53 211 147 98 130 56 136 0 250 8 174 252 233 36 7 228 213 65 35 100 43 39 149 107 242 248 125 184 61 207 187 165 110 19 6 167 105 87 37 249 67 10 223 168 25 103 113 247 249 157 75 194 190 107 172 33 203 26 86 42 76 21 108 78 195 206 67 184 133 79 167 144 186 87 37 229 117 139 126 199 57 139 199 77 141 177 6 166 217 226 213 107 82 13 24 236 217 49 210 107 101 226 112 115 164 115 228 224 168 94 207 11 0 63 226 41 21 159 241 107 221 216 56 182 95 171 172 2 240 41 180 193 51 114 68 183 124 112 0 79 97 15 8 111 145 200 253 189 128 74 
21 229 203 249 170 162 54 189 76 34 10 89 219 217 61 120 4 238 123 38 233 68 100 75 175 57 218 10 170 56 42 137 191 104 109 252 44 151 134 41 138 139 7 171 210 121 145 98 194 98 73 119 221 137 155 95 65 177 41 218 19 75 9 215 116 202 130 50 35 81 1 238 14 16 247 73 87 0 74 134 61 71 177 76 79 116 254 14 234 3 17 174 106 209 236 91 101 128 57 151 94 223 121 200 203 234 168 210 5 184 38 137 229 10 100 11 21 176 89 240 166 236 197 220 132 39 125 44 65 201 174 248 244 174 54 200 54 233 9 80 101 11 243 122 117 156 24 58 147 207 86 88 39 0 155 186 225 229 177 64 239 181 137 135 222 25 203 59 17 254 196 39 240 120 30 52 47 152 0 161 171 68 224 95 170 232 216 208 80 14 63 210 
208 86 84 220 157 129 67 64 111 154 2 174 191 227 93 174 183 38 63 218 86 5 238 36 203 217 222 58 3 225 87 21 107 4 167 44 81 208 137 77 114 253 14 95 10 221 166 232 4 199 138 163 95 44 90 141 233 51 129 13 246 140 129 219 189 41 238 174 84 191 94 172 163 247 240 43 82 150 81 33 182 250 90 210 222 95 197 128 39 175 106 63 223 199 118 212 125 15 47 36 138 217 76 21 231 222 185 203 207 143 78 82 60 32 48 5 166 226 233 254 233 118 161 229 138 9 78 229 73 134 5 212 247 141 62 198 70 24 226 116 92 146 229 208 195 158 28 68 28 191 158 68 178 114 34 57 146 75 57 254 61 248 126 237 19 98 104 63 193 241 214 164 191 91 204 6 154 205 166 66 97 53 207 137 16 212 12 113 26 0 115 206 
227 28 132 6 148 171 250 51 89 5 122 115 17 131 107 239 9 44 241 228 224 89 209 52 127 248 114 227 105 65 213 192 46 201 22 197 207 253 208 67 227 72 143 254 105 4 37 145 35 1 96 171 89 145 46 199 32 91 75 145 164 171 58 215 149 4 190 221 197 203 7 85 48 72 50 32 242 22 30 186 244 242 15 236 70 209 239 59 119 95 20 18 221 216 35 21 181 185 150 143 108 16 190 104 160 109 161 50 15 37 156 65 100 164 123 254 84 187 175 193 196 238 95 164 116 157 174 84 70 44 145 221 43 160 139 147 240 8 64 168 100 241 128 33 136 192 52 95 78 190 248 162 86 60 48 168 173 164 35 56 97 206 104 39 186 130 221 85 4 21 13 148 79 104 151 58 59 80 87 211 252 179 61 252 126 167 151 45 181 111 233 96 
127 140 184 154 59 132 183 85 153 189 140 248 170 32 245 189 175 166 172 57 47 202 116 158 234 253 210 45 4 121 191 128 251 210 114 68 58 110 149 176 221 184 154 160 63 169 197 228 149 175 175 75 232 117 68 145 220 102 43 167 189 51 184 198 94 98 55 153 189 30 156 81 143 206 219 196 103 221 62 53 91 185 151 74 62 198 15 154 150 236 56 205 99 176 159 108 146 89 241 139 130 50 133 107 189 248 41 206 211 202 247 22 19 234 94 165 177 252 102 244 234 31 71 57 15 47 210 229 196 16 20 53 133 109 108 66 136 57 70 60 8 98 102 9 119 204 228 95 229 72 84 52 180 41 106 230 157 23 216 113 190 188 85 148 92 154 181 62 37 6 172 96 56 78 33 118 140 141 128 234 83 218 70 4 154 116 18 233 211 23 132 13 
